<?xml version="1.0" ?><svg fill="none" height="26" viewBox="0 0 31 26" width="31" xmlns="http://www.w3.org/2000/svg"><path d="M1.79999 1V25" stroke="#4F4F4F" stroke-linecap="round" stroke-miterlimit="10" stroke-width="2"/><path d="M1.79999 25H29.2" stroke="#4F4F4F" stroke-linecap="round" stroke-miterlimit="10" stroke-width="2"/><path d="M6.5 19C7.60457 19 8.5 18.1046 8.5 17C8.5 15.8954 7.60457 15 6.5 15C5.39543 15 4.5 15.8954 4.5 17C4.5 18.1046 5.39543 19 6.5 19Z" stroke="#4F4F4F" stroke-linecap="round" stroke-miterlimit="10" stroke-width="2"/><path d="M12.5 8.29999C13.6046 8.29999 14.5 7.40456 14.5 6.29999C14.5 5.19542 13.6046 4.29999 12.5 4.29999C11.3954 4.29999 10.5 5.19542 10.5 6.29999C10.5 7.40456 11.3954 8.29999 12.5 8.29999Z" stroke="#4F4F4F" stroke-linecap="round" stroke-miterlimit="10" stroke-width="2"/><path d="M19.2 18.3C20.3046 18.3 21.2 17.4046 21.2 16.3C21.2 15.1954 20.3046 14.3 19.2 14.3C18.0954 14.3 17.2 15.1954 17.2 16.3C17.2 17.4046 18.0954 18.3 19.2 18.3Z" stroke="#4F4F4F" stroke-linecap="round" stroke-miterlimit="10" stroke-width="2"/><path d="M27.2 10.3C28.3046 10.3 29.2 9.40456 29.2 8.29999C29.2 7.19542 28.3046 6.29999 27.2 6.29999C26.0954 6.29999 25.2 7.19542 25.2 8.29999C25.2 9.40456 26.0954 10.3 27.2 10.3Z" stroke="#4F4F4F" stroke-linecap="round" stroke-miterlimit="10" stroke-width="2"/><path d="M2.5 17.7H4.5" stroke="#4F4F4F" stroke-linecap="round" stroke-miterlimit="10" stroke-width="2"/><path d="M7.79999 15.7L11.2 7.70001" stroke="#4F4F4F" stroke-linecap="round" stroke-miterlimit="10" stroke-width="2"/><path d="M13.8 7.70001L19.2 14.3" stroke="#4F4F4F" stroke-linecap="round" stroke-miterlimit="10" stroke-width="2"/><path d="M21.2 15L25.2 9.70001" stroke="#4F4F4F" stroke-linecap="round" stroke-miterlimit="10" stroke-width="2"/></svg>